<?xml version="1.0" encoding="UTF-8"?>
<svg xmlns="http://www.w3.org/2000/svg" viewBox="0 0 512 512" role="img" aria-label="Lovable Stack Architect">
  <defs>
    <linearGradient id="stackGrad" x1="0" y1="0" x2="1" y2="1">
      <stop offset="0%" stop-color="#FF4D8D"/>
      <stop offset="55%" stop-color="#FF7A45"/>
      <stop offset="100%" stop-color="#4D7CFF"/>
    </linearGradient>
    <clipPath id="heartClip">
      <path d="M256,422 C256,422 96,322 96,218 C96,158 146,126 196,126 C228,126 250,146 256,176 C262,146 284,126 316,126 C366,126 416,158 416,218 C416,322 256,422 256,422 Z"/>
    </clipPath>
  </defs>
  <rect x="0" y="0" width="512" height="512" rx="112" fill="#FFF7F4"/>
  <rect x="0.5" y="0.5" width="511" height="511" rx="111.5" fill="none" stroke="#FFD9CB"/>
  <g clip-path="url(#heartClip)">
    <rect x="80" y="312" width="352" height="116" fill="url(#stackGrad)"/>
    <rect x="80" y="218" width="352" height="90" fill="url(#stackGrad)"/>
    <rect x="80" y="120" width="352" height="94" fill="url(#stackGrad)"/>
    <rect x="80" y="214" width="352" height="4" fill="#FFF7F4"/>
    <rect x="80" y="308" width="352" height="4" fill="#FFF7F4"/>
  </g>
  <path d="M256,422 C256,422 96,322 96,218 C96,158 146,126 196,126 C228,126 250,146 256,176 C262,146 284,126 316,126 C366,126 416,158 416,218 C416,322 256,422 256,422 Z"
        fill="none" stroke="#B33A6B" stroke-opacity="0.18" stroke-width="2"/>
  <path d="M256 74 L266 100 L256 112 L246 100 Z" fill="#FF7A45" opacity="0.95"/>
  <circle cx="256" cy="92" r="3.5" fill="#FFFFFF"/>
</svg>
