<?xml version="1.0" encoding="UTF-8"?>
<svg xmlns="http://www.w3.org/2000/svg" viewBox="0 0 1200 280" role="img" aria-label="Lovable Stack Architect">
  <defs>
    <linearGradient id="stackGrad" x1="0" y1="0" x2="1" y2="1">
      <stop offset="0%" stop-color="#FF4D8D"/>
      <stop offset="55%" stop-color="#FF7A45"/>
      <stop offset="100%" stop-color="#4D7CFF"/>
    </linearGradient>
    <clipPath id="heartClipLockup">
      <path d="M140,242 C140,242 30,177 30,109 C30,70 62,49 95,49 C116,49 132,62 140,82 C148,62 164,49 185,49 C218,49 250,70 250,109 C250,177 140,242 140,242 Z"/>
    </clipPath>
  </defs>

  <!-- Mark -->
  <g transform="translate(20,20)">
    <rect x="0" y="0" width="240" height="240" rx="52" fill="#FFF7F4"/>
    <rect x="0.5" y="0.5" width="239" height="239" rx="51.5" fill="none" stroke="#FFD9CB"/>
    <g clip-path="url(#heartClipLockup)">
      <rect x="20" y="170" width="240" height="80" fill="url(#stackGrad)"/>
      <rect x="20" y="108" width="240" height="60" fill="url(#stackGrad)"/>
      <rect x="20" y="44" width="240" height="62" fill="url(#stackGrad)"/>
      <rect x="20" y="106" width="240" height="2.5" fill="#FFF7F4"/>
      <rect x="20" y="168" width="240" height="2.5" fill="#FFF7F4"/>
    </g>
    <path d="M140,242 C140,242 30,177 30,109 C30,70 62,49 95,49 C116,49 132,62 140,82 C148,62 164,49 185,49 C218,49 250,70 250,109 C250,177 140,242 140,242 Z"
          fill="none" stroke="#B33A6B" stroke-opacity="0.18" stroke-width="1.5"/>
    <path d="M140 18 L147 36 L140 44 L133 36 Z" fill="#FF7A45" opacity="0.95"/>
    <circle cx="140" cy="30" r="2.4" fill="#FFFFFF"/>
  </g>

  <!-- Wordmark -->
  <g font-family="Inter, ui-sans-serif, system-ui, -apple-system, Segoe UI, Roboto, Helvetica, Arial, sans-serif" fill="#0F172A">
    <text x="296" y="138" font-size="64" font-weight="700" letter-spacing="-1.5">Lovable Stack</text>
    <text x="296" y="206" font-size="64" font-weight="400" letter-spacing="-1.2" fill="#475569">Architect</text>
  </g>
</svg>
