<?xml version="1.0" encoding="UTF-8"?>
<svg xmlns="http://www.w3.org/2000/svg" viewBox="0 0 1200 630">
  <defs>
    <linearGradient id="bgcard" x1="0" y1="0" x2="1" y2="1">
      <stop offset="0%" stop-color="#0B0B1F"/>
      <stop offset="100%" stop-color="#1A1240"/>
    </linearGradient>
    <linearGradient id="brand" x1="0" y1="0" x2="1" y2="1">
      <stop offset="0%" stop-color="#7B5BFF"/>
      <stop offset="100%" stop-color="#C4A6FF"/>
    </linearGradient>
    <radialGradient id="glow" cx="0.85" cy="0.15" r="0.7">
      <stop offset="0%" stop-color="#7B5BFF" stop-opacity="0.55"/>
      <stop offset="60%" stop-color="#7B5BFF" stop-opacity="0"/>
    </radialGradient>
  </defs>
  <rect width="1200" height="630" fill="url(#bgcard)"/>
  <rect width="1200" height="630" fill="url(#glow)"/>
  <g stroke="#FFFFFF" stroke-opacity="0.05" stroke-width="1">
<line x1="0" y1="0" x2="0" y2="630"/>
<line x1="60" y1="0" x2="60" y2="630"/>
<line x1="120" y1="0" x2="120" y2="630"/>
<line x1="180" y1="0" x2="180" y2="630"/>
<line x1="240" y1="0" x2="240" y2="630"/>
<line x1="300" y1="0" x2="300" y2="630"/>
<line x1="360" y1="0" x2="360" y2="630"/>
<line x1="420" y1="0" x2="420" y2="630"/>
<line x1="480" y1="0" x2="480" y2="630"/>
<line x1="540" y1="0" x2="540" y2="630"/>
<line x1="600" y1="0" x2="600" y2="630"/>
<line x1="660" y1="0" x2="660" y2="630"/>
<line x1="720" y1="0" x2="720" y2="630"/>
<line x1="780" y1="0" x2="780" y2="630"/>
<line x1="840" y1="0" x2="840" y2="630"/>
<line x1="900" y1="0" x2="900" y2="630"/>
<line x1="960" y1="0" x2="960" y2="630"/>
<line x1="1020" y1="0" x2="1020" y2="630"/>
<line x1="1080" y1="0" x2="1080" y2="630"/>
<line x1="1140" y1="0" x2="1140" y2="630"/>
<line x1="1200" y1="0" x2="1200" y2="630"/>
<line x1="0" y1="0" x2="1200" y2="0"/>
<line x1="0" y1="60" x2="1200" y2="60"/>
<line x1="0" y1="120" x2="1200" y2="120"/>
<line x1="0" y1="180" x2="1200" y2="180"/>
<line x1="0" y1="240" x2="1200" y2="240"/>
<line x1="0" y1="300" x2="1200" y2="300"/>
<line x1="0" y1="360" x2="1200" y2="360"/>
<line x1="0" y1="420" x2="1200" y2="420"/>
<line x1="0" y1="480" x2="1200" y2="480"/>
<line x1="0" y1="540" x2="1200" y2="540"/>
<line x1="0" y1="600" x2="1200" y2="600"/>
  </g>
  <g transform="translate(80,150)">
    <defs>
      <linearGradient id="stackGrad" x1="0" y1="0" x2="1" y2="1">
        <stop offset="0%" stop-color="#FF4D8D"/>
        <stop offset="55%" stop-color="#FF7A45"/>
        <stop offset="100%" stop-color="#4D7CFF"/>
      </linearGradient>
      <clipPath id="heartClipOg">
        <path d="M140,246 C140,246 22,176 22,108 C22,66 56,44 90,44 C112,44 128,58 140,80 C152,58 168,44 190,44 C224,44 258,66 258,108 C258,176 140,246 140,246 Z"/>
      </clipPath>
    </defs>
    <rect x="0" y="0" width="280" height="280" rx="60" fill="#FFF7F4"/>
    <g clip-path="url(#heartClipOg)">
      <rect x="0" y="172" width="280" height="80" fill="url(#stackGrad)"/>
      <rect x="0" y="108" width="280" height="62" fill="url(#stackGrad)"/>
      <rect x="0" y="40" width="280" height="66" fill="url(#stackGrad)"/>
      <rect x="0" y="106" width="280" height="3" fill="#FFF7F4"/>
      <rect x="0" y="170" width="280" height="3" fill="#FFF7F4"/>
    </g>
    <path d="M140,246 C140,246 22,176 22,108 C22,66 56,44 90,44 C112,44 128,58 140,80 C152,58 168,44 190,44 C224,44 258,66 258,108 C258,176 140,246 140,246 Z"
          fill="none" stroke="#B33A6B" stroke-opacity="0.2" stroke-width="1.5"/>
    <path d="M140 12 L150 36 L140 46 L130 36 Z" fill="#FF7A45" opacity="0.95"/>
    <circle cx="140" cy="28" r="3" fill="#FFFFFF"/>
  </g>

  <g font-family="DejaVu Sans, Verdana, sans-serif" fill="#FFFFFF">
    <text x="420" y="262" font-size="78" font-weight="700" letter-spacing="-2">Lovable Stack</text>
    <text x="420" y="346" font-size="78" font-weight="300" letter-spacing="-2" fill="#C4B7FF">Architect</text>
    <text x="420" y="416" font-size="26" font-weight="400" fill="#9F94C9" letter-spacing="0.5">Pick the right backend for your Lovable app.</text>
  </g>
  <g font-family="DejaVu Sans, Verdana, sans-serif" fill="#7E78AE" font-size="18" letter-spacing="3">
    <text x="80" y="568">SIDE BY SIDE  ·  10 PLATFORMS  ·  ZERO ACCOUNTS</text>
  </g>
</svg>
